<svg width="48" height="48" viewBox="0 0 48 48" fill="none" xmlns="http://www.w3.org/2000/svg">
<path d="M33 38.8572C34.0347 38.4496 35.0375 37.9651 36 37.4079V44.9997C36 45.3976 35.842 45.7791 35.5607 46.0604C35.2794 46.3417 34.8978 46.4997 34.5 46.4997C34.1022 46.4997 33.7207 46.3417 33.4394 46.0604C33.1581 45.7791 33 45.3976 33 44.9997V38.8572ZM35.205 22.2766L24.705 16.676C24.3547 16.4971 23.9481 16.4629 23.5728 16.5809C23.1976 16.6989 22.8837 16.9595 22.6988 17.3067C22.5139 17.6539 22.4727 18.0599 22.5843 18.4371C22.6958 18.8143 22.951 19.1327 23.295 19.3235L32.0625 23.9997L35.25 22.301L35.205 22.2766ZM47.205 16.676L24.705 4.676C24.488 4.56044 24.2459 4.5 24 4.5C23.7541 4.5 23.512 4.56044 23.295 4.676L0.79502 16.676C0.555028 16.8039 0.354321 16.9946 0.21437 17.2278C0.0744183 17.461 0.000488281 17.7278 0.000488281 17.9998C0.000488281 18.2717 0.0744183 18.5385 0.21437 18.7717C0.354321 19.0049 0.555028 19.1956 0.79502 19.3235L6.00002 22.1004V31.1791C5.99846 31.9159 6.26963 32.6272 6.76127 33.176C9.21752 35.9116 14.7206 40.4997 24 40.4997C27.0768 40.5252 30.1306 39.9679 33 38.8572V24.5004L32.0625 23.9997L24 28.2991L8.21815 19.8747L4.68752 17.9998L24 7.70038L43.3125 17.9998L39.7913 19.8747H39.78L35.25 22.301C35.4781 22.4327 35.6675 22.6221 35.7991 22.8502C35.9308 23.0783 36.0001 23.337 36 23.6004V37.4079C37.956 36.2787 39.7236 34.8509 41.2388 33.176C41.7304 32.6272 42.0016 31.9159 42 31.1791V22.1004L47.205 19.3235C47.445 19.1956 47.6457 19.0049 47.7857 18.7717C47.9256 18.5385 47.9995 18.2717 47.9995 17.9998C47.9995 17.7278 47.9256 17.461 47.7857 17.2278C47.6457 16.9946 47.445 16.8039 47.205 16.676Z" fill="black"/>
</svg>
