<svg width="48" height="48" viewBox="0 0 48 48" fill="none" xmlns="http://www.w3.org/2000/svg">
<path d="M47.205 16.6765L24.705 4.67649C24.488 4.56093 24.2459 4.50049 24 4.50049C23.7541 4.50049 23.512 4.56093 23.295 4.67649L0.79502 16.6765C0.555028 16.8044 0.354321 16.9951 0.21437 17.2283C0.0744183 17.4615 0.000488281 17.7283 0.000488281 18.0002C0.000488281 18.2722 0.0744183 18.539 0.21437 18.7722C0.354321 19.0054 0.555028 19.1961 0.79502 19.324L6.00002 22.1009V31.1796C5.99846 31.9164 6.26963 32.6277 6.76127 33.1765C9.21752 35.9121 14.7206 40.5002 24 40.5002C27.0768 40.5257 30.1306 39.9684 33 38.8577V45.0002C33 45.3981 33.1581 45.7796 33.4394 46.0609C33.7207 46.3422 34.1022 46.5002 34.5 46.5002C34.8978 46.5002 35.2794 46.3422 35.5607 46.0609C35.842 45.7796 36 45.3981 36 45.0002V37.4084C37.956 36.2792 39.7236 34.8514 41.2388 33.1765C41.7304 32.6277 42.0016 31.9164 42 31.1796V22.1009L47.205 19.324C47.445 19.1961 47.6457 19.0054 47.7857 18.7722C47.9256 18.539 47.9995 18.2722 47.9995 18.0002C47.9995 17.7283 47.9256 17.4615 47.7857 17.2283C47.6457 16.9951 47.445 16.8044 47.205 16.6765ZM24 37.5002C15.8869 37.5002 11.115 33.5365 9.00002 31.1796V23.7002L23.295 31.324C23.512 31.4395 23.7541 31.5 24 31.5C24.2459 31.5 24.488 31.4395 24.705 31.324L33 26.9009V35.5896C30.6375 36.6921 27.66 37.5002 24 37.5002ZM39 31.1721C38.1009 32.1699 37.0948 33.0659 36 33.844V25.2996L39 23.7002V31.1721ZM35.25 22.3015L35.2088 22.2771L24.7088 16.6765C24.3584 16.4976 23.9519 16.4634 23.5766 16.5814C23.2013 16.6993 22.8874 16.96 22.7025 17.3072C22.5176 17.6544 22.4765 18.0604 22.588 18.4376C22.6995 18.8148 22.9548 19.1332 23.2988 19.324L32.0625 24.0002L24 28.2996L4.68752 18.0002L24 7.70086L43.3125 18.0002L35.25 22.3015Z" fill="black"/>
</svg>
